Coordinates
version=1
nRows=13
nColumns=38
inDegrees=no

Units are S.I. units (second, meters, Newtons, ...)
If the header above contains a line with 'inDegrees', this indicates whether rotational values are in degrees (yes) or radians (no).

endheader
time	pelvis_tilt	pelvis_list	pelvis_rotation	pelvis_tx	pelvis_ty	pelvis_tz	hip_flexion_r	hip_adduction_r	hip_rotation_r	knee_angle_r	ankle_angle_r	subtalar_angle_r	mtp_angle_r	hip_flexion_l	hip_adduction_l	hip_rotation_l	knee_angle_l	ankle_angle_l	subtalar_angle_l	mtp_angle_l	lumbar_extension	lumbar_bending	lumbar_rotation	arm_flex_r	arm_add_r	arm_rot_r	elbow_flex_r	pro_sup_r	wrist_flex_r	wrist_dev_r	arm_flex_l	arm_add_l	arm_rot_l	elbow_flex_l	pro_sup_l	wrist_flex_l	wrist_dev_l
1.41	-2.91045	1.43882	-1.72869	0.61331	0.964481	0.945175	-0.137602	0.0234099	-0.133915	0.236641	0.166215	0	0	0.292771	-0.156135	-0.302161	0.958521	0.10255	0	0	-0.263658	-0.0760996	-0.0570031	-0.104762	-0.247427	0.0891432	0.51656	1.10517	0	0	-0.101145	-0.384523	0.279411	0.683539	1.24333	0	0
1.42	-2.89361	1.4374	-1.74864	0.613205	0.974018	0.944763	-0.15584	0.0216495	-0.131188	0.225936	0.171342	0	0	0.299092	-0.150032	-0.317249	0.907935	0.109417	0	0	-0.266583	-0.0810263	-0.055294	-0.102457	-0.246916	0.0918174	0.518224	1.0994	0	0	-0.103209	-0.384295	0.271248	0.684317	1.23972	0	0
1.43	-2.87892	1.4367	-1.76599	0.613054	0.983524	0.944072	-0.172464	0.0200551	-0.129664	0.216995	0.177707	0	0	0.304611	-0.143358	-0.33263	0.853273	0.114542	0	0	-0.268958	-0.0855967	-0.0540882	-0.0999014	-0.246354	0.0948974	0.519608	1.09346	0	0	-0.105045	-0.384349	0.263778	0.684624	1.23621	0	0
1.44	-2.86007	1.43615	-1.78652	0.612766	0.993197	0.943058	-0.185629	0.00987873	-0.159461	0.216332	0.192173	0	0	0.308618	-0.134869	-0.34846	0.794464	0.117895	0	0	-0.270685	-0.0907392	-0.0542002	-0.0976094	-0.245406	0.0975328	0.520842	1.08893	0	0	-0.107426	-0.385124	0.25746	0.684795	1.23336	0	0
1.45	-2.85424	1.43739	-1.79531	0.61253	1.00238	0.941872	-0.200645	0.0168451	-0.130639	0.204659	0.19315	0	0	0.313071	-0.127394	-0.364239	0.731727	0.118323	0	0	-0.272223	-0.0938061	-0.052969	-0.094032	-0.24419	0.0993853	0.521721	1.08204	0	0	-0.10794	-0.385113	0.251696	0.683211	1.22971	0	0
1.46	-2.8476	1.43894	-1.80425	0.612211	1.01175	0.940383	-0.213082	0.016312	-0.128313	0.199323	0.200282	0	0	0.315997	-0.118745	-0.380825	0.665438	0.118401	0	0	-0.273164	-0.0968489	-0.0521388	-0.0913318	-0.242283	0.0991746	0.522722	1.07709	0	0	-0.108507	-0.385687	0.247337	0.681338	1.22678	0	0
1.47	-2.8405	1.44056	-1.81325	0.611753	1.02114	0.938705	-0.2248	0.0153439	-0.127827	0.195677	0.209039	0	0	0.316937	-0.108227	-0.397284	0.595111	0.11831	0	0	-0.274096	-0.0997484	-0.0515408	-0.0886226	-0.240377	0.0989535	0.523375	1.0718	0	0	-0.108666	-0.386249	0.243826	0.678931	1.22332	0	0
1.48	-2.83693	1.44232	-1.81878	0.611138	1.03052	0.936835	-0.235316	0.0142598	-0.127724	0.194439	0.219131	0	0	0.316154	-0.0963498	-0.412871	0.521848	0.118541	0	0	-0.275094	-0.101908	-0.0507391	-0.0856282	-0.238752	0.0985644	0.52363	1.06658	0	0	-0.108263	-0.386649	0.241497	0.675713	1.21963	0	0
1.49	-2.8249	1.44405	-1.832	0.610285	1.04009	0.93467	-0.242158	0.00380926	-0.159306	0.202038	0.238234	0	0	0.313444	-0.0809105	-0.425523	0.445229	0.118815	0	0	-0.2755	-0.104875	-0.0506765	-0.0830915	-0.23742	0.0985743	0.52375	1.0617	0	0	-0.108172	-0.387285	0.239764	0.672335	1.21614	0	0
1.5	-2.80607	1.44586	-1.85166	0.609197	1.04958	0.932427	-0.253185	-0.00180606	-0.168625	0.202552	0.254445	0	0	0.306623	-0.0598487	-0.426847	0.35829	0.112441	0	0	-0.276006	-0.10834	-0.0510065	-0.0801227	-0.236472	0.0991726	0.523375	1.05528	0	0	-0.107189	-0.387414	0.238094	0.667602	1.212	0	0
1.51	-2.799	1.44832	-1.85993	0.608017	1.05899	0.930098	-0.259697	-0.00331204	-0.171048	0.206016	0.264651	0	0	0.296086	-0.0375019	-0.414194	0.264317	0.101507	0	0	-0.276518	-0.110008	-0.050714	-0.0770184	-0.236029	0.0990774	0.52328	1.04863	0	0	-0.105659	-0.386776	0.235761	0.661824	1.20947	0	0
1.52	-2.79249	1.45046	-1.86771	0.606741	1.06866	0.927648	-0.269066	-0.00626808	-0.176533	0.208029	0.277111	0	0	0.279206	-0.0130272	-0.382192	0.161926	0.0829589	0	0	-0.276689	-0.111707	-0.050761	-0.0747453	-0.235966	0.0993581	0.524145	1.04172	0	0	-0.105217	-0.385971	0.231866	0.656008	1.2111	0	0
1.53	-2.79748	1.45318	-1.86481	0.605567	1.07866	0.925035	-0.278089	-0.00784993	-0.180996	0.211038	0.289742	0	0	0.257618	0.00781497	-0.33269	0.0576885	0.057206	0	0	-0.275774	-0.112211	-0.0498079	-0.0733872	-0.236555	0.100668	0.525417	1.03663	0	0	-0.105868	-0.384992	0.226772	0.650157	1.2161	0	0
